<svg xmlns="http://www.w3.org/2000/svg" width="26.612" height="26.612" viewBox="0 0 26.612 26.612"><path d="M19.268,0H7.344A7.352,7.352,0,0,0,0,7.344V19.268a7.352,7.352,0,0,0,7.344,7.344H19.268a7.352,7.352,0,0,0,7.344-7.344V7.344A7.352,7.352,0,0,0,19.268,0Zm4.983,19.268a4.988,4.988,0,0,1-4.983,4.983H7.344a4.988,4.988,0,0,1-4.983-4.983V7.344A4.988,4.988,0,0,1,7.344,2.361H19.268a4.989,4.989,0,0,1,4.983,4.983V19.268Z" transform="translate(0)"/><path d="M47.825,40.97a6.857,6.857,0,1,0,6.857,6.857A6.865,6.865,0,0,0,47.825,40.97Zm0,11.353a4.5,4.5,0,1,1,4.5-4.5A4.5,4.5,0,0,1,47.825,52.323Z" transform="translate(-34.519 -34.521)"/><path d="M120.652,28.251a1.731,1.731,0,1,0,1.225.507A1.738,1.738,0,0,0,120.652,28.251Z" transform="translate(-100.202 -23.804)"/></svg>