<svg xmlns="http://www.w3.org/2000/svg" width="30.027" height="24.397" viewBox="0 0 30.027 24.397"><g transform="translate(0 0)"><path d="M30.027,50.888a12.834,12.834,0,0,1-3.547.972,6.121,6.121,0,0,0,2.708-3.4,12.3,12.3,0,0,1-3.9,1.49,6.155,6.155,0,0,0-10.648,4.209,6.339,6.339,0,0,0,.143,1.4A17.424,17.424,0,0,1,2.091,49.122,6.157,6.157,0,0,0,3.982,57.35,6.079,6.079,0,0,1,1.2,56.592v.068a6.184,6.184,0,0,0,4.932,6.049,6.144,6.144,0,0,1-1.614.2,5.442,5.442,0,0,1-1.165-.105,6.214,6.214,0,0,0,5.752,4.288,12.369,12.369,0,0,1-7.633,2.626A11.531,11.531,0,0,1,0,69.635,17.33,17.33,0,0,0,9.444,72.4c11.328,0,17.521-9.384,17.521-17.517,0-.272-.009-.535-.023-.8A12.281,12.281,0,0,0,30.027,50.888Z" transform="translate(0 -48)"/></g></svg>